<?xml version="1.0" standalone="no"?>
<!DOCTYPE svg PUBLIC "-//W3C//DTD SVG 20010904//EN"
 "http://www.w3.org/TR/2001/REC-SVG-20010904/DTD/svg10.dtd">
<svg version="1.0" xmlns="http://www.w3.org/2000/svg"
 width="600.000000pt" height="600.000000pt" viewBox="0 0 600.000000 600.000000"
 preserveAspectRatio="xMidYMid meet">
<metadata>
Created by potrace 1.14, written by Peter Selinger 2001-2017
</metadata>
<g transform="translate(0.000000,600.000000) scale(0.100000,-0.100000)"
fill="#000000" stroke="none">
<path d="M0 3000 l0 -3000 3000 0 3000 0 0 3000 0 3000 -3000 0 -3000 0 0
-3000z m3041 2489 c4 -30 9 -134 13 -231 l6 -178 -60 0 -60 0 0 93 c0 52 -3
96 -6 99 -3 3 -14 4 -25 1 -18 -5 -19 -12 -13 -98 l7 -93 -46 -7 c-71 -11 -77
-6 -77 68 0 35 -3 139 -7 230 l-6 167 55 0 55 0 7 -52 c3 -29 6 -68 6 -85 0
-27 4 -33 21 -33 20 0 21 4 18 85 l-4 84 40 3 c69 5 70 5 76 -53z m187 41 c29
0 32 -3 32 -31 0 -24 -3 -30 -16 -25 -9 3 -33 6 -55 6 -37 0 -39 2 -39 31 0
28 3 31 23 25 12 -3 37 -6 55 -6z m23 -135 c-2 -27 -9 -111 -15 -185 l-11
-135 -52 0 c-29 1 -55 3 -57 6 -5 5 7 178 19 269 2 19 4 50 5 68 l0 34 58 -4
57 -3 -4 -50z m209 8 c23 -19 34 -23 39 -14 6 9 19 9 50 2 23 -5 45 -12 48
-15 4 -3 -6 -66 -21 -138 -51 -250 -61 -268 -141 -268 -87 0 -149 32 -161 84
l-7 29 49 -7 c33 -4 54 -13 66 -28 14 -19 19 -20 32 -9 9 7 16 24 16 37 0 21
-4 23 -25 18 -14 -3 -36 -3 -49 0 -61 15 -69 60 -36 203 31 131 73 163 140
106z m340 1 c22 -9 40 -17 40 -19 0 -1 -7 -22 -15 -45 -8 -23 -15 -44 -15 -46
0 -2 15 -3 34 -2 19 1 46 -6 60 -16 49 -32 49 -30 -75 -353 l-8 -21 -48 18
c-26 10 -47 24 -47 32 1 7 25 73 53 147 28 73 48 137 45 142 -17 27 -36 -1
-83 -122 -28 -72 -51 -134 -51 -139 0 -5 -4 -11 -9 -14 -11 -7 -101 23 -101
34 0 6 61 168 151 398 10 26 16 27 69 6z m-1291 -18 c15 -8 33 -27 40 -43 21
-45 81 -287 73 -294 -4 -3 -26 -11 -50 -17 -36 -8 -44 -8 -49 4 -4 12 -9 11
-20 -6 -22 -31 -61 -43 -94 -30 -31 13 -48 47 -56 111 l-5 46 56 43 c32 24 56
50 56 61 0 32 -19 69 -36 69 -13 0 -15 -9 -12 -46 l3 -47 -45 -13 c-25 -8 -46
-14 -47 -14 -1 0 -5 20 -8 44 -9 55 12 98 57 119 63 29 98 32 137 13z m-244
-241 c38 -88 68 -173 68 -189 0 -40 -56 -90 -123 -110 -57 -17 -92 -10 -109
22 -9 17 -5 22 38 40 33 13 52 17 59 10 25 -25 44 28 22 62 -7 12 -12 10 -30
-12 -27 -35 -73 -45 -106 -23 -38 25 -120 218 -110 259 8 33 58 59 97 51 21
-5 29 -3 29 7 0 16 82 60 91 49 3 -3 37 -78 74 -166z m2056 10 c69 -45 85
-111 41 -165 l-18 -23 -42 28 c-23 15 -42 29 -42 32 0 2 7 15 16 29 12 18 14
28 6 36 -15 15 -40 3 -54 -26 -9 -21 -7 -35 15 -83 41 -93 42 -107 12 -168
-49 -100 -108 -119 -195 -61 -73 48 -85 108 -39 182 l21 34 44 -31 44 -30 -20
-29 c-24 -34 -26 -58 -4 -67 21 -8 53 33 54 67 0 13 -12 55 -27 92 -23 61 -25
72 -14 108 6 21 27 56 46 76 32 33 38 36 76 31 22 -3 58 -17 80 -32z m-2438
-41 c12 -14 57 -80 99 -147 l77 -122 -46 -28 c-25 -16 -49 -25 -52 -20 -4 4
-43 63 -85 131 -72 113 -106 147 -106 105 0 -14 59 -115 147 -249 13 -20 11
-23 -31 -48 -24 -14 -47 -26 -49 -26 -6 0 -197 303 -197 312 0 3 18 17 41 32
32 22 43 25 55 15 11 -9 14 -8 14 5 0 9 11 28 25 41 33 34 78 33 108 -1z
m-381 -161 c-43 -37 -50 -39 -68 -15 -12 15 -8 21 29 54 l42 37 17 -22 c16
-21 15 -23 -20 -54z m180 -138 l117 -144 -45 -36 c-25 -21 -46 -36 -48 -34 -1
2 -53 66 -114 141 -62 76 -112 142 -112 147 0 9 70 71 80 70 3 0 58 -65 122
-144z m2852 66 c71 -39 91 -118 47 -180 l-24 -33 -38 38 -38 37 25 29 c24 30
24 48 0 48 -18 0 -166 -171 -166 -192 0 -27 20 -22 56 13 l32 31 37 -33 37
-34 -38 -32 c-30 -27 -46 -33 -82 -33 -39 0 -50 5 -88 44 -50 50 -57 90 -25
141 28 45 142 166 165 175 25 10 61 3 100 -19z m-2994 -174 l134 -138 -40 -40
-40 -40 -161 164 -161 164 41 42 42 41 25 -28 c15 -15 87 -89 160 -165z m1748
109 c686 -128 1223 -587 1447 -1235 44 -130 109 -451 90 -451 -2 0 -20 8 -40
17 -39 19 -40 21 -55 118 -79 512 -399 983 -854 1255 -96 58 -177 94 -330 146
-546 189 -1201 83 -1640 -264 -373 -294 -600 -673 -681 -1134 -81 -462 41
-955 334 -1348 108 -145 354 -379 386 -366 7 2 12 -3 11 -11 -1 -10 42 -41
113 -84 299 -179 692 -270 1039 -241 220 19 402 65 606 153 150 65 333 180
319 201 -3 6 -1 8 5 4 13 -8 115 75 211 173 257 263 434 624 485 991 14 96 17
104 48 131 18 15 37 28 42 29 12 0 -2 -144 -25 -269 -44 -228 -145 -472 -278
-672 -371 -556 -1028 -876 -1684 -821 -367 31 -675 146 -967 361 -89 65 -260
229 -334 321 -306 375 -454 869 -406 1351 67 657 490 1244 1091 1509 161 72
330 120 509 145 123 18 443 13 558 -9z m1561 -141 c0 -5 -15 -21 -34 -35 -34
-25 -44 -40 -26 -40 5 0 23 -12 40 -26 23 -19 31 -34 31 -59 0 -37 -10 -46
-184 -188 l-80 -65 -34 41 -34 41 29 26 c16 14 70 60 121 103 86 72 103 97 67
97 -8 0 -67 -43 -131 -96 -128 -105 -112 -102 -164 -33 l-19 26 177 145 177
145 32 -36 c18 -20 32 -40 32 -46z m-3487 -63 c35 -26 93 -72 130 -101 l67
-54 -31 -38 c-21 -27 -37 -37 -48 -34 -14 4 -16 0 -13 -19 4 -19 -3 -33 -25
-56 -38 -38 -58 -38 -110 0 -62 44 -66 59 -45 141 l18 70 -25 19 c-30 23 -60
26 -60 6 0 -8 13 -25 30 -38 l29 -23 -34 -40 -35 -40 -36 39 c-31 33 -35 43
-31 72 12 71 79 144 134 144 12 0 50 -21 85 -48z m-144 -298 c76 -45 97 -63
109 -92 19 -47 5 -99 -42 -150 -47 -52 -86 -49 -192 12 -95 55 -130 85 -139
120 -19 76 70 184 141 171 16 -3 72 -31 123 -61z m3759 40 c31 -19 63 -85 63
-127 0 -49 -28 -79 -131 -137 -97 -56 -138 -64 -182 -35 -28 18 -77 107 -77
139 0 31 78 97 170 144 88 45 109 47 157 16z m-2191 -84 c3 -65 47 -111 121
-125 43 -8 170 16 323 60 130 38 153 40 265 24 70 -11 75 -13 75 -36 0 -14
-27 -85 -60 -159 -64 -143 -71 -168 -42 -160 9 2 42 8 72 11 30 4 96 15 145
26 50 10 104 21 120 24 157 30 415 16 415 -24 0 -5 -19 -20 -42 -34 -96 -57
-243 -205 -279 -282 -28 -60 -24 -88 16 -124 56 -49 84 -52 337 -36 112 7 128
6 134 -8 7 -20 -26 -68 -71 -102 -18 -14 -84 -48 -147 -76 -171 -74 -199 -100
-158 -145 14 -14 43 -35 65 -46 71 -37 272 -35 453 4 46 10 57 9 81 -5 16 -9
54 -19 85 -23 93 -11 93 -13 -74 -156 -133 -115 -169 -133 -305 -155 -192 -30
-299 -64 -347 -110 -39 -38 -36 -67 10 -97 37 -25 184 -75 229 -78 43 -4 46
-21 15 -90 -69 -152 -247 -281 -407 -295 -68 -6 -167 11 -203 34 -13 8 -26 13
-28 10 -10 -10 19 -63 55 -102 38 -41 66 -84 59 -90 -2 -2 -28 -6 -58 -9 -30
-3 -86 -12 -125 -20 -73 -16 -164 -20 -202 -10 -16 4 -26 18 -33 46 -10 34 -8
44 10 73 37 59 140 135 185 135 22 0 19 17 -4 25 -11 3 -34 22 -51 41 -32 37
-31 37 -46 -13 -2 -7 -20 -20 -41 -28 -55 -23 -288 -93 -353 -105 -30 -6 -91
-18 -135 -26 -96 -19 -510 -30 -519 -15 -17 27 7 60 57 80 29 12 61 27 71 32
11 6 46 14 78 16 76 7 75 23 -1 23 -41 0 -95 -11 -173 -36 -122 -40 -148 -42
-358 -30 -134 8 -174 17 -254 59 -65 34 -209 164 -232 208 -7 15 -14 48 -14
74 0 42 2 45 26 45 14 0 42 -13 62 -30 81 -64 168 -81 293 -55 117 23 124 37
19 34 -79 -2 -91 0 -166 34 -128 58 -164 68 -239 69 -77 0 -95 8 -95 45 0 45
27 82 66 89 30 5 52 -2 150 -50 138 -67 165 -69 302 -25 115 36 187 39 275 10
81 -27 129 -60 231 -158 117 -113 122 -116 195 -107 34 3 61 10 61 14 0 14
-82 93 -165 159 -91 73 -127 111 -121 128 13 33 -89 52 -184 35 -46 -9 -56 -8
-67 6 -12 15 -13 15 -11 -3 2 -15 -3 -21 -22 -23 -14 -2 -69 -12 -122 -22
-169 -34 -278 -21 -278 34 0 31 -11 33 -28 6 -13 -21 -13 -21 -60 5 -79 44
-101 67 -107 110 -8 56 10 80 49 65 35 -13 41 -8 24 20 -11 18 -11 23 6 36 27
19 35 18 46 -8 l9 -23 7 23 c6 20 12 23 36 18 37 -7 108 -58 138 -98 19 -25
27 -29 53 -24 18 3 56 8 84 12 64 7 180 39 199 55 21 18 36 85 29 137 -20 153
-44 188 -45 67 -1 -33 -4 -78 -8 -99 -7 -38 -9 -39 -72 -58 -36 -10 -106 -21
-156 -25 -90 -6 -91 -5 -122 23 -17 16 -33 43 -37 59 -6 31 5 51 90 169 28 39
35 57 35 95 l-1 46 -20 -60 c-21 -59 -86 -162 -128 -199 -21 -19 -21 -19 -21
15 0 19 8 46 18 59 13 20 17 46 17 125 -1 99 -1 102 -59 245 -69 170 -78 225
-48 294 24 53 36 56 120 27 29 -10 64 -16 78 -13 36 7 75 64 120 178 42 107
90 192 117 208 19 11 26 6 74 -60 l18 -24 80 52 c196 125 358 187 485 184 51
-1 55 -3 56 -26z m-796 -114 c0 -2 -8 -10 -17 -17 -16 -13 -17 -12 -4 4 13 16
21 21 21 13z m-1074 -82 c27 -9 51 -18 53 -20 6 -5 -30 -104 -39 -104 -4 0
-27 7 -50 15 -58 20 -80 19 -80 -4 0 -15 26 -29 128 -69 172 -67 171 -66 178
-48 9 23 -9 41 -56 56 -22 7 -40 14 -40 16 0 4 41 98 44 102 9 8 96 -40 114
-63 28 -36 29 -95 2 -151 -42 -87 -93 -92 -259 -29 -130 50 -165 69 -179 100
-27 59 -2 150 54 194 32 25 64 26 130 5z m4227 -42 c53 -51 60 -146 14 -190
-28 -27 -197 -92 -238 -92 -63 0 -119 72 -119 153 0 61 37 89 192 142 82 28
110 26 151 -13z m-3306 -184 c-3 -8 -6 -5 -6 6 -1 11 2 17 5 13 3 -3 4 -12 1
-19z m3499 -111 c5 -23 8 -46 9 -51 0 -5 -98 -34 -218 -66 l-219 -57 -8 23
c-5 12 -12 37 -15 55 l-6 34 218 56 c120 31 221 55 225 53 3 -2 10 -23 14 -47z
m-1233 -204 c-7 -2 -19 -2 -25 0 -7 3 -2 5 12 5 14 0 19 -2 13 -5z m140 0 c-7
-2 -19 -2 -25 0 -7 3 -2 5 12 5 14 0 19 -2 13 -5z m-2686 -65 c-3 -8 -6 -5 -6
6 -1 11 2 17 5 13 3 -3 4 -12 1 -19z m78 -132 c9 -13 18 -39 21 -58 5 -31 3
-34 -27 -43 -61 -19 -61 -32 -8 -162 15 -37 7 -52 -17 -32 -32 27 -64 111 -64
171 0 65 10 98 40 128 26 26 36 25 55 -4z m2705 -51 c-41 -41 -77 -75 -79 -75
-3 0 28 34 69 75 41 41 77 75 79 75 3 0 -28 -34 -69 -75z m-2883 -67 c-3 -8
-6 -5 -6 6 -1 11 2 17 5 13 3 -3 4 -12 1 -19z m213 -38 c0 -23 -4 -24 -31 -10
-27 15 -24 30 6 30 18 0 25 -5 25 -20z m2917 4 c-3 -3 -12 -4 -19 -1 -8 3 -5
6 6 6 11 1 17 -2 13 -5z m-3160 -370 c-3 -3 -12 -4 -19 -1 -8 3 -5 6 6 6 11 1
17 -2 13 -5z m-52 -304 c10 -11 16 -20 13 -20 -3 0 -13 9 -23 20 -10 11 -16
20 -13 20 3 0 13 -9 23 -20z m2575 -1282 c0 -4 -18 -17 -40 -28 -22 -11 -40
-22 -40 -25 0 -15 46 -95 54 -95 6 1 22 7 36 15 37 21 44 19 65 -22 11 -21 21
-41 23 -44 1 -3 -16 -14 -38 -24 -22 -10 -40 -20 -40 -21 0 -12 56 -114 62
-114 5 0 27 9 49 20 22 12 43 19 48 16 10 -6 45 -85 40 -89 -2 -2 -52 -29
-111 -60 l-106 -56 -98 190 c-121 235 -114 225 -145 209 -13 -7 -25 -14 -27
-15 -1 -1 32 -97 73 -214 41 -117 75 -214 75 -216 0 -5 -131 -48 -134 -44 -2
2 -36 98 -76 214 -41 116 -74 211 -75 213 -1 1 -14 -2 -27 -7 -25 -9 -25 -10
-12 -62 22 -85 22 -84 -53 -96 -38 -6 -69 -9 -71 -8 -1 1 -7 28 -13 61 -16 90
-18 96 -42 92 -32 -4 -31 -31 2 -217 31 -168 46 -206 74 -183 10 9 13 25 9 55
-12 93 -14 89 58 103 36 6 67 10 70 7 2 -2 6 -36 8 -75 5 -87 -11 -125 -69
-158 -56 -31 -143 -37 -189 -13 -59 31 -77 83 -120 343 -16 92 -14 95 -80
-160 -28 -107 -53 -203 -56 -212 -4 -14 -16 -18 -55 -18 -49 0 -49 0 -43 27 4
16 39 149 78 297 l71 268 48 2 c46 2 48 0 44 -21 -5 -25 10 -32 19 -8 12 29
89 57 156 54 35 -1 72 2 83 8 11 5 74 29 140 52 67 23 168 66 225 96 l105 54
22 -42 c12 -23 22 -45 23 -49z m-1615 -26 c22 -15 47 -42 55 -58 l15 -31 30
18 c62 39 174 14 227 -50 26 -30 39 -39 37 -23 -6 38 -3 39 109 27 110 -12
164 -31 182 -64 13 -25 13 -98 0 -176 -13 -82 -40 -105 -120 -105 -67 0 -64 6
-76 -135 -7 -83 -10 -98 -23 -91 -4 3 -30 6 -59 7 -28 1 -56 5 -61 8 -5 4 -2
75 8 169 9 89 14 162 11 162 -3 0 -18 -46 -33 -103 -15 -57 -36 -117 -46 -133
-59 -96 -239 -76 -292 33 -24 49 -22 72 17 212 13 47 21 87 19 89 -3 3 -11 0
-19 -7 -8 -7 -25 -9 -42 -5 l-28 7 22 -28 c12 -15 22 -38 22 -51 0 -18 -81
-208 -94 -221 -7 -7 -116 46 -116 56 0 5 20 51 45 102 49 100 53 120 30 139
-13 11 -23 -4 -70 -104 -31 -64 -58 -116 -60 -116 -6 0 -118 50 -122 54 -3 3
198 440 228 498 9 16 16 14 87 -18 42 -19 95 -47 117 -62z"/>
<path d="M3445 5338 c-11 -32 -35 -146 -35 -170 0 -30 11 -36 27 -15 9 11 43
158 43 185 0 16 -29 16 -35 0z"/>
<path d="M2462 5178 c-7 -7 -12 -19 -12 -29 0 -32 22 -79 37 -79 13 0 15 9 9
46 -8 60 -18 78 -34 62z"/>
<path d="M2085 5210 c-4 -6 10 -51 31 -100 28 -68 41 -90 55 -90 26 0 24 12
-19 109 -37 83 -53 103 -67 81z"/>
<path d="M1346 4458 c14 -48 68 -89 88 -68 8 9 0 21 -34 51 -51 45 -64 48 -54
17z"/>
<path d="M1030 4265 c0 -15 194 -135 218 -135 37 0 -4 40 -93 92 -105 61 -125
68 -125 43z"/>
<path d="M4835 4220 c-55 -32 -101 -64 -103 -70 -10 -28 34 -16 114 31 101 59
126 78 118 90 -10 16 -28 9 -129 -51z"/>
<path d="M2893 3784 c-111 -24 -149 -49 -288 -189 -131 -133 -177 -165 -235
-165 -60 0 -120 58 -120 117 0 31 43 83 105 127 79 56 81 66 10 66 -73 0 -116
-25 -144 -84 -25 -51 -27 -131 -6 -202 16 -55 72 -127 114 -148 41 -20 131
-14 175 13 33 21 56 46 167 184 39 48 87 78 170 106 36 12 90 37 119 56 79 51
99 47 179 -30 37 -36 71 -65 74 -65 33 0 -57 127 -133 188 -59 47 -80 50 -187
26z"/>
<path d="M2850 3521 c-116 -36 -228 -138 -294 -268 -24 -48 -55 -99 -69 -112
l-26 -23 -30 34 c-40 46 -139 90 -205 92 -78 2 -73 -19 29 -116 258 -246 478
-365 610 -328 51 14 127 76 152 124 23 45 20 129 -7 211 -16 47 -24 94 -24
145 l-1 74 36 9 c29 7 47 3 94 -18 32 -14 61 -23 64 -20 11 11 -43 97 -83 131
-78 67 -165 90 -246 65z m17 -190 c57 -52 115 -200 93 -241 -10 -19 -13 -19
-33 -5 -33 23 -37 18 -16 -22 21 -42 25 -83 7 -83 -16 0 -99 91 -95 104 2 6
13 12 25 14 12 2 22 8 22 13 0 13 -33 11 -53 -3 -18 -14 -47 -88 -47 -122 0
-30 -18 -89 -33 -110 -12 -17 -15 -17 -52 5 -81 46 -135 92 -135 116 0 67 77
202 174 303 66 70 94 76 143 31z"/>
<path d="M3438 3343 c-22 -6 -22 -1 3 -70 26 -71 31 -76 96 -125 58 -43 69
-66 58 -133 -5 -38 -12 -50 -45 -71 -24 -16 -58 -27 -94 -31 -31 -3 -56 -9
-56 -13 0 -4 35 -35 78 -68 167 -130 200 -207 100 -232 -24 -5 -95 -37 -158
-69 -146 -75 -223 -101 -301 -101 -129 0 -160 56 -124 225 14 66 20 145 11
145 -2 0 -40 -16 -85 -34 -105 -45 -135 -50 -196 -32 -54 17 -115 21 -115 8 0
-20 34 -50 111 -102 76 -50 91 -65 155 -160 92 -137 132 -160 279 -161 134 -1
343 60 398 118 10 10 33 39 53 65 44 61 83 81 154 81 62 -1 75 4 62 20 -5 7
-37 65 -71 130 l-61 117 39 39 c82 82 82 219 1 261 -21 11 -51 34 -67 51 -114
128 -139 149 -174 148 -19 -1 -42 -3 -51 -6z"/>
<path d="M1645 2800 c-8 -14 3 -30 21 -30 16 0 16 2 8 24 -7 18 -20 21 -29 6z"/>
<path d="M1555 2780 c-8 -14 13 -40 32 -40 20 0 12 44 -9 48 -9 2 -19 -2 -23
-8z"/>
<path d="M2387 2774 c-4 -4 -7 -16 -7 -26 0 -13 7 -18 26 -18 21 0 25 4 22 22
-3 23 -27 35 -41 22z"/>
<path d="M2254 2755 c-10 -25 10 -39 36 -25 26 14 22 34 -8 38 -13 2 -25 -3
-28 -13z"/>
<path d="M2145 2751 c-9 -16 3 -31 26 -31 14 0 19 6 17 17 -4 20 -33 29 -43
14z"/>
<path d="M1622 2718 c2 -12 11 -24 21 -26 14 -3 18 1 15 20 -2 12 -11 24 -21
26 -14 3 -18 -1 -15 -20z"/>
<path d="M2473 2693 c-18 -7 -16 -30 3 -37 27 -10 34 -7 34 19 0 24 -11 29
-37 18z"/>
<path d="M2475 2610 c-8 -13 13 -40 30 -40 13 0 27 35 17 44 -9 10 -40 7 -47
-4z"/>
<path d="M4983 3923 c-68 -27 -113 -51 -113 -59 0 -22 27 -16 140 29 64 26
105 48 105 56 0 25 -17 21 -132 -26z"/>
<path d="M2202 1098 c-27 -66 -27 -68 1 -68 43 0 77 110 37 117 -10 2 -23 -16
-38 -49z"/>
<path d="M2521 1047 c-12 -15 -101 -336 -101 -366 0 -14 6 -21 19 -21 14 0 23
13 35 48 25 79 86 308 86 324 0 21 -26 30 -39 15z"/>
<path d="M2830 968 c0 -13 -3 -47 -6 -75 -6 -50 -5 -53 15 -53 14 0 25 9 31
26 14 35 12 98 -2 112 -19 19 -38 14 -38 -10z"/>
</g>
</svg>
